<mxfile host="app.diagrams.net" agent="Mozilla/5.0 (Windows NT 10.0; Win64; x64) AppleWebKit/537.36 (KHTML, like Gecko) Chrome/127.0.0.0 Safari/537.36" version="24.7.6">
  <diagram name="페이지-1" id="tbFB8bULalSEZeC805pr">
    <mxGraphModel dx="1221" dy="733" grid="1" gridSize="10" guides="1" tooltips="1" connect="1" arrows="1" fold="1" page="1" pageScale="1" pageWidth="1169" pageHeight="827" math="0" shadow="0">
      <root>
        <mxCell id="0" />
        <mxCell id="1" parent="0" />
        <mxCell id="adKv_Lc8FZIVJhlpuSaN-3" style="edgeStyle=orthogonalEdgeStyle;rounded=0;orthogonalLoop=1;jettySize=auto;html=1;exitX=0.5;exitY=1;exitDx=0;exitDy=0;entryX=0.5;entryY=0;entryDx=0;entryDy=0;" edge="1" parent="1" source="adKv_Lc8FZIVJhlpuSaN-1" target="adKv_Lc8FZIVJhlpuSaN-2">
          <mxGeometry relative="1" as="geometry" />
        </mxCell>
        <mxCell id="adKv_Lc8FZIVJhlpuSaN-1" value="시작" style="rounded=1;whiteSpace=wrap;html=1;absoluteArcSize=1;arcSize=14;strokeWidth=2;fontSize=18;" vertex="1" parent="1">
          <mxGeometry x="80" y="40" width="120" height="70" as="geometry" />
        </mxCell>
        <mxCell id="adKv_Lc8FZIVJhlpuSaN-2" value="score=86" style="rounded=1;whiteSpace=wrap;html=1;absoluteArcSize=1;arcSize=14;strokeWidth=2;fontSize=18;" vertex="1" parent="1">
          <mxGeometry x="80" y="160" width="120" height="70" as="geometry" />
        </mxCell>
        <mxCell id="adKv_Lc8FZIVJhlpuSaN-4" value="score&amp;gt;=90" style="strokeWidth=2;html=1;shape=mxgraph.flowchart.decision;whiteSpace=wrap;fontSize=18;" vertex="1" parent="1">
          <mxGeometry x="90" y="280" width="100" height="100" as="geometry" />
        </mxCell>
        <mxCell id="adKv_Lc8FZIVJhlpuSaN-5" style="edgeStyle=orthogonalEdgeStyle;rounded=0;orthogonalLoop=1;jettySize=auto;html=1;exitX=0.5;exitY=1;exitDx=0;exitDy=0;entryX=0.5;entryY=0;entryDx=0;entryDy=0;entryPerimeter=0;" edge="1" parent="1" source="adKv_Lc8FZIVJhlpuSaN-2" target="adKv_Lc8FZIVJhlpuSaN-4">
          <mxGeometry relative="1" as="geometry" />
        </mxCell>
        <mxCell id="adKv_Lc8FZIVJhlpuSaN-11" style="edgeStyle=orthogonalEdgeStyle;rounded=0;orthogonalLoop=1;jettySize=auto;html=1;exitX=0.5;exitY=1;exitDx=0;exitDy=0;exitPerimeter=0;entryX=0.5;entryY=0;entryDx=0;entryDy=0;" edge="1" parent="1" source="adKv_Lc8FZIVJhlpuSaN-6" target="adKv_Lc8FZIVJhlpuSaN-10">
          <mxGeometry relative="1" as="geometry" />
        </mxCell>
        <mxCell id="adKv_Lc8FZIVJhlpuSaN-6" value="score&amp;gt;=80" style="strokeWidth=2;html=1;shape=mxgraph.flowchart.decision;whiteSpace=wrap;fontSize=18;" vertex="1" parent="1">
          <mxGeometry x="240" y="280" width="100" height="100" as="geometry" />
        </mxCell>
        <mxCell id="adKv_Lc8FZIVJhlpuSaN-8" style="edgeStyle=orthogonalEdgeStyle;rounded=0;orthogonalLoop=1;jettySize=auto;html=1;exitX=1;exitY=0.5;exitDx=0;exitDy=0;exitPerimeter=0;entryX=0;entryY=0.5;entryDx=0;entryDy=0;entryPerimeter=0;" edge="1" parent="1" source="adKv_Lc8FZIVJhlpuSaN-4" target="adKv_Lc8FZIVJhlpuSaN-6">
          <mxGeometry relative="1" as="geometry" />
        </mxCell>
        <mxCell id="adKv_Lc8FZIVJhlpuSaN-9" value="거짓" style="text;html=1;align=center;verticalAlign=middle;resizable=0;points=[];autosize=1;strokeColor=none;fillColor=none;fontSize=18;" vertex="1" parent="1">
          <mxGeometry x="180" y="323" width="60" height="40" as="geometry" />
        </mxCell>
        <mxCell id="adKv_Lc8FZIVJhlpuSaN-14" style="edgeStyle=orthogonalEdgeStyle;rounded=0;orthogonalLoop=1;jettySize=auto;html=1;exitX=0.5;exitY=1;exitDx=0;exitDy=0;entryX=1;entryY=0.5;entryDx=0;entryDy=0;" edge="1" parent="1" source="adKv_Lc8FZIVJhlpuSaN-10" target="adKv_Lc8FZIVJhlpuSaN-13">
          <mxGeometry relative="1" as="geometry" />
        </mxCell>
        <mxCell id="adKv_Lc8FZIVJhlpuSaN-10" value="grade=&#39;B&#39;" style="rounded=1;whiteSpace=wrap;html=1;absoluteArcSize=1;arcSize=14;strokeWidth=2;fontSize=18;" vertex="1" parent="1">
          <mxGeometry x="230" y="420" width="120" height="70" as="geometry" />
        </mxCell>
        <mxCell id="adKv_Lc8FZIVJhlpuSaN-12" value="참" style="text;html=1;align=center;verticalAlign=middle;resizable=0;points=[];autosize=1;strokeColor=none;fillColor=none;fontSize=18;" vertex="1" parent="1">
          <mxGeometry x="295" y="375" width="40" height="40" as="geometry" />
        </mxCell>
        <mxCell id="adKv_Lc8FZIVJhlpuSaN-16" style="edgeStyle=orthogonalEdgeStyle;rounded=0;orthogonalLoop=1;jettySize=auto;html=1;exitX=0.5;exitY=1;exitDx=0;exitDy=0;entryX=0.5;entryY=0;entryDx=0;entryDy=0;" edge="1" parent="1" source="adKv_Lc8FZIVJhlpuSaN-13" target="adKv_Lc8FZIVJhlpuSaN-15">
          <mxGeometry relative="1" as="geometry" />
        </mxCell>
        <mxCell id="adKv_Lc8FZIVJhlpuSaN-13" value="점수 : 86, 등급 : B" style="rounded=1;whiteSpace=wrap;html=1;absoluteArcSize=1;arcSize=14;strokeWidth=2;fontSize=18;" vertex="1" parent="1">
          <mxGeometry x="80" y="530" width="120" height="70" as="geometry" />
        </mxCell>
        <mxCell id="adKv_Lc8FZIVJhlpuSaN-15" value="종료" style="rounded=1;whiteSpace=wrap;html=1;absoluteArcSize=1;arcSize=14;strokeWidth=2;fontSize=18;" vertex="1" parent="1">
          <mxGeometry x="80" y="640" width="120" height="70" as="geometry" />
        </mxCell>
        <mxCell id="adKv_Lc8FZIVJhlpuSaN-17" style="edgeStyle=orthogonalEdgeStyle;rounded=0;orthogonalLoop=1;jettySize=auto;html=1;exitX=0.5;exitY=1;exitDx=0;exitDy=0;entryX=0.5;entryY=0;entryDx=0;entryDy=0;" edge="1" parent="1" source="adKv_Lc8FZIVJhlpuSaN-18" target="adKv_Lc8FZIVJhlpuSaN-19">
          <mxGeometry relative="1" as="geometry" />
        </mxCell>
        <mxCell id="adKv_Lc8FZIVJhlpuSaN-18" value="시작" style="rounded=1;whiteSpace=wrap;html=1;absoluteArcSize=1;arcSize=14;strokeWidth=2;fontSize=18;" vertex="1" parent="1">
          <mxGeometry x="400" y="10" width="120" height="70" as="geometry" />
        </mxCell>
        <mxCell id="adKv_Lc8FZIVJhlpuSaN-19" value="score=n" style="rounded=1;whiteSpace=wrap;html=1;absoluteArcSize=1;arcSize=14;strokeWidth=2;fontSize=18;" vertex="1" parent="1">
          <mxGeometry x="400" y="110" width="120" height="70" as="geometry" />
        </mxCell>
        <mxCell id="adKv_Lc8FZIVJhlpuSaN-44" style="edgeStyle=orthogonalEdgeStyle;rounded=0;orthogonalLoop=1;jettySize=auto;html=1;exitX=1;exitY=0.5;exitDx=0;exitDy=0;exitPerimeter=0;" edge="1" parent="1" source="adKv_Lc8FZIVJhlpuSaN-20" target="adKv_Lc8FZIVJhlpuSaN-27">
          <mxGeometry relative="1" as="geometry" />
        </mxCell>
        <mxCell id="adKv_Lc8FZIVJhlpuSaN-20" value="score&amp;gt;=90" style="strokeWidth=2;html=1;shape=mxgraph.flowchart.decision;whiteSpace=wrap;fontSize=18;" vertex="1" parent="1">
          <mxGeometry x="410" y="220" width="100" height="100" as="geometry" />
        </mxCell>
        <mxCell id="adKv_Lc8FZIVJhlpuSaN-21" style="edgeStyle=orthogonalEdgeStyle;rounded=0;orthogonalLoop=1;jettySize=auto;html=1;exitX=0.5;exitY=1;exitDx=0;exitDy=0;entryX=0.5;entryY=0;entryDx=0;entryDy=0;entryPerimeter=0;" edge="1" parent="1" source="adKv_Lc8FZIVJhlpuSaN-19" target="adKv_Lc8FZIVJhlpuSaN-20">
          <mxGeometry relative="1" as="geometry" />
        </mxCell>
        <mxCell id="adKv_Lc8FZIVJhlpuSaN-48" style="edgeStyle=orthogonalEdgeStyle;rounded=0;orthogonalLoop=1;jettySize=auto;html=1;exitX=1;exitY=0.5;exitDx=0;exitDy=0;exitPerimeter=0;entryX=0;entryY=0.5;entryDx=0;entryDy=0;" edge="1" parent="1" source="adKv_Lc8FZIVJhlpuSaN-23" target="adKv_Lc8FZIVJhlpuSaN-45">
          <mxGeometry relative="1" as="geometry">
            <Array as="points">
              <mxPoint x="600" y="400" />
            </Array>
          </mxGeometry>
        </mxCell>
        <mxCell id="adKv_Lc8FZIVJhlpuSaN-23" value="score&amp;gt;=80" style="strokeWidth=2;html=1;shape=mxgraph.flowchart.decision;whiteSpace=wrap;fontSize=18;" vertex="1" parent="1">
          <mxGeometry x="410" y="350" width="100" height="100" as="geometry" />
        </mxCell>
        <mxCell id="adKv_Lc8FZIVJhlpuSaN-66" style="edgeStyle=orthogonalEdgeStyle;rounded=0;orthogonalLoop=1;jettySize=auto;html=1;exitX=1;exitY=0.5;exitDx=0;exitDy=0;entryX=1;entryY=0;entryDx=0;entryDy=0;" edge="1" parent="1" source="adKv_Lc8FZIVJhlpuSaN-27" target="adKv_Lc8FZIVJhlpuSaN-35">
          <mxGeometry relative="1" as="geometry">
            <mxPoint x="800" y="700" as="targetPoint" />
            <Array as="points">
              <mxPoint x="800" y="270" />
              <mxPoint x="800" y="710" />
              <mxPoint x="520" y="710" />
            </Array>
          </mxGeometry>
        </mxCell>
        <mxCell id="adKv_Lc8FZIVJhlpuSaN-27" value="grade=&#39;A&#39;" style="rounded=1;whiteSpace=wrap;html=1;absoluteArcSize=1;arcSize=14;strokeWidth=2;fontSize=18;" vertex="1" parent="1">
          <mxGeometry x="600" y="235" width="120" height="70" as="geometry" />
        </mxCell>
        <mxCell id="adKv_Lc8FZIVJhlpuSaN-28" value="참" style="text;html=1;align=center;verticalAlign=middle;resizable=0;points=[];autosize=1;strokeColor=none;fillColor=none;fontSize=18;" vertex="1" parent="1">
          <mxGeometry x="545" y="230" width="40" height="40" as="geometry" />
        </mxCell>
        <mxCell id="adKv_Lc8FZIVJhlpuSaN-42" style="edgeStyle=orthogonalEdgeStyle;rounded=0;orthogonalLoop=1;jettySize=auto;html=1;exitX=1;exitY=0.5;exitDx=0;exitDy=0;entryX=0;entryY=0.5;entryDx=0;entryDy=0;" edge="1" parent="1" source="adKv_Lc8FZIVJhlpuSaN-30" target="adKv_Lc8FZIVJhlpuSaN-31">
          <mxGeometry relative="1" as="geometry" />
        </mxCell>
        <mxCell id="adKv_Lc8FZIVJhlpuSaN-30" value="결과 출력" style="rounded=1;whiteSpace=wrap;html=1;absoluteArcSize=1;arcSize=14;strokeWidth=2;fontSize=18;" vertex="1" parent="1">
          <mxGeometry x="600" y="730" width="120" height="70" as="geometry" />
        </mxCell>
        <mxCell id="adKv_Lc8FZIVJhlpuSaN-31" value="종료" style="rounded=1;whiteSpace=wrap;html=1;absoluteArcSize=1;arcSize=14;strokeWidth=2;fontSize=18;" vertex="1" parent="1">
          <mxGeometry x="790" y="730" width="120" height="70" as="geometry" />
        </mxCell>
        <mxCell id="adKv_Lc8FZIVJhlpuSaN-49" style="edgeStyle=orthogonalEdgeStyle;rounded=0;orthogonalLoop=1;jettySize=auto;html=1;exitX=1;exitY=0.5;exitDx=0;exitDy=0;exitPerimeter=0;entryX=0;entryY=0.5;entryDx=0;entryDy=0;" edge="1" parent="1" source="adKv_Lc8FZIVJhlpuSaN-33" target="adKv_Lc8FZIVJhlpuSaN-46">
          <mxGeometry relative="1" as="geometry" />
        </mxCell>
        <mxCell id="adKv_Lc8FZIVJhlpuSaN-33" value="score&amp;gt;=70" style="strokeWidth=2;html=1;shape=mxgraph.flowchart.decision;whiteSpace=wrap;fontSize=18;" vertex="1" parent="1">
          <mxGeometry x="410" y="480" width="100" height="100" as="geometry" />
        </mxCell>
        <mxCell id="adKv_Lc8FZIVJhlpuSaN-40" style="edgeStyle=orthogonalEdgeStyle;rounded=0;orthogonalLoop=1;jettySize=auto;html=1;exitX=0.5;exitY=1;exitDx=0;exitDy=0;exitPerimeter=0;entryX=0.5;entryY=0;entryDx=0;entryDy=0;" edge="1" parent="1" source="adKv_Lc8FZIVJhlpuSaN-34" target="adKv_Lc8FZIVJhlpuSaN-35">
          <mxGeometry relative="1" as="geometry" />
        </mxCell>
        <mxCell id="adKv_Lc8FZIVJhlpuSaN-50" style="edgeStyle=orthogonalEdgeStyle;rounded=0;orthogonalLoop=1;jettySize=auto;html=1;exitX=1;exitY=0.5;exitDx=0;exitDy=0;exitPerimeter=0;entryX=0;entryY=0.5;entryDx=0;entryDy=0;" edge="1" parent="1" source="adKv_Lc8FZIVJhlpuSaN-34" target="adKv_Lc8FZIVJhlpuSaN-47">
          <mxGeometry relative="1" as="geometry" />
        </mxCell>
        <mxCell id="adKv_Lc8FZIVJhlpuSaN-34" value="score&amp;gt;=60" style="strokeWidth=2;html=1;shape=mxgraph.flowchart.decision;whiteSpace=wrap;fontSize=18;" vertex="1" parent="1">
          <mxGeometry x="410" y="600" width="100" height="100" as="geometry" />
        </mxCell>
        <mxCell id="adKv_Lc8FZIVJhlpuSaN-41" style="edgeStyle=orthogonalEdgeStyle;rounded=0;orthogonalLoop=1;jettySize=auto;html=1;exitX=1;exitY=0.5;exitDx=0;exitDy=0;entryX=0;entryY=0.5;entryDx=0;entryDy=0;" edge="1" parent="1" source="adKv_Lc8FZIVJhlpuSaN-35" target="adKv_Lc8FZIVJhlpuSaN-30">
          <mxGeometry relative="1" as="geometry" />
        </mxCell>
        <mxCell id="adKv_Lc8FZIVJhlpuSaN-35" value="grade=&#39;F&#39;" style="rounded=1;whiteSpace=wrap;html=1;absoluteArcSize=1;arcSize=14;strokeWidth=2;fontSize=18;" vertex="1" parent="1">
          <mxGeometry x="400" y="730" width="120" height="70" as="geometry" />
        </mxCell>
        <mxCell id="adKv_Lc8FZIVJhlpuSaN-36" style="edgeStyle=orthogonalEdgeStyle;rounded=0;orthogonalLoop=1;jettySize=auto;html=1;exitX=0.5;exitY=1;exitDx=0;exitDy=0;exitPerimeter=0;entryX=0.5;entryY=0;entryDx=0;entryDy=0;entryPerimeter=0;" edge="1" parent="1" source="adKv_Lc8FZIVJhlpuSaN-20" target="adKv_Lc8FZIVJhlpuSaN-23">
          <mxGeometry relative="1" as="geometry" />
        </mxCell>
        <mxCell id="adKv_Lc8FZIVJhlpuSaN-38" style="edgeStyle=orthogonalEdgeStyle;rounded=0;orthogonalLoop=1;jettySize=auto;html=1;exitX=0.5;exitY=1;exitDx=0;exitDy=0;exitPerimeter=0;entryX=0.5;entryY=0;entryDx=0;entryDy=0;entryPerimeter=0;" edge="1" parent="1" source="adKv_Lc8FZIVJhlpuSaN-33" target="adKv_Lc8FZIVJhlpuSaN-34">
          <mxGeometry relative="1" as="geometry" />
        </mxCell>
        <mxCell id="adKv_Lc8FZIVJhlpuSaN-39" style="edgeStyle=orthogonalEdgeStyle;rounded=0;orthogonalLoop=1;jettySize=auto;html=1;exitX=0.5;exitY=1;exitDx=0;exitDy=0;exitPerimeter=0;entryX=0.5;entryY=0;entryDx=0;entryDy=0;entryPerimeter=0;" edge="1" parent="1" source="adKv_Lc8FZIVJhlpuSaN-23" target="adKv_Lc8FZIVJhlpuSaN-33">
          <mxGeometry relative="1" as="geometry" />
        </mxCell>
        <mxCell id="adKv_Lc8FZIVJhlpuSaN-43" value="거짓" style="text;html=1;align=center;verticalAlign=middle;resizable=0;points=[];autosize=1;strokeColor=none;fillColor=none;fontSize=18;" vertex="1" parent="1">
          <mxGeometry x="460" y="315" width="60" height="40" as="geometry" />
        </mxCell>
        <mxCell id="adKv_Lc8FZIVJhlpuSaN-60" style="edgeStyle=orthogonalEdgeStyle;rounded=0;orthogonalLoop=1;jettySize=auto;html=1;exitX=1;exitY=0.5;exitDx=0;exitDy=0;entryX=0.986;entryY=0.129;entryDx=0;entryDy=0;entryPerimeter=0;" edge="1" parent="1" source="adKv_Lc8FZIVJhlpuSaN-45" target="adKv_Lc8FZIVJhlpuSaN-35">
          <mxGeometry relative="1" as="geometry">
            <mxPoint x="800" y="700" as="targetPoint" />
            <Array as="points">
              <mxPoint x="800" y="400" />
              <mxPoint x="800" y="710" />
              <mxPoint x="518" y="710" />
            </Array>
          </mxGeometry>
        </mxCell>
        <mxCell id="adKv_Lc8FZIVJhlpuSaN-45" value="grade=&#39;B&#39;" style="rounded=1;whiteSpace=wrap;html=1;absoluteArcSize=1;arcSize=14;strokeWidth=2;fontSize=18;" vertex="1" parent="1">
          <mxGeometry x="600" y="365" width="120" height="70" as="geometry" />
        </mxCell>
        <mxCell id="adKv_Lc8FZIVJhlpuSaN-68" style="edgeStyle=orthogonalEdgeStyle;rounded=0;orthogonalLoop=1;jettySize=auto;html=1;exitX=1;exitY=0.5;exitDx=0;exitDy=0;entryX=0.997;entryY=0.119;entryDx=0;entryDy=0;entryPerimeter=0;" edge="1" parent="1" source="adKv_Lc8FZIVJhlpuSaN-46" target="adKv_Lc8FZIVJhlpuSaN-35">
          <mxGeometry relative="1" as="geometry">
            <mxPoint x="800" y="700" as="targetPoint" />
            <Array as="points">
              <mxPoint x="800" y="530" />
              <mxPoint x="800" y="710" />
              <mxPoint x="520" y="710" />
            </Array>
          </mxGeometry>
        </mxCell>
        <mxCell id="adKv_Lc8FZIVJhlpuSaN-46" value="grade=&#39;C&#39;" style="rounded=1;whiteSpace=wrap;html=1;absoluteArcSize=1;arcSize=14;strokeWidth=2;fontSize=18;" vertex="1" parent="1">
          <mxGeometry x="600" y="495" width="120" height="70" as="geometry" />
        </mxCell>
        <mxCell id="adKv_Lc8FZIVJhlpuSaN-70" style="edgeStyle=orthogonalEdgeStyle;rounded=0;orthogonalLoop=1;jettySize=auto;html=1;exitX=1;exitY=0.5;exitDx=0;exitDy=0;entryX=1;entryY=0;entryDx=0;entryDy=0;" edge="1" parent="1" source="adKv_Lc8FZIVJhlpuSaN-47" target="adKv_Lc8FZIVJhlpuSaN-35">
          <mxGeometry relative="1" as="geometry">
            <mxPoint x="800" y="700" as="targetPoint" />
            <Array as="points">
              <mxPoint x="800" y="650" />
              <mxPoint x="800" y="710" />
              <mxPoint x="520" y="710" />
            </Array>
          </mxGeometry>
        </mxCell>
        <mxCell id="adKv_Lc8FZIVJhlpuSaN-47" value="grade=&#39;D&#39;" style="rounded=1;whiteSpace=wrap;html=1;absoluteArcSize=1;arcSize=14;strokeWidth=2;fontSize=18;" vertex="1" parent="1">
          <mxGeometry x="600" y="615" width="120" height="70" as="geometry" />
        </mxCell>
        <mxCell id="adKv_Lc8FZIVJhlpuSaN-51" value="참" style="text;html=1;align=center;verticalAlign=middle;resizable=0;points=[];autosize=1;strokeColor=none;fillColor=none;fontSize=18;" vertex="1" parent="1">
          <mxGeometry x="545" y="355" width="40" height="40" as="geometry" />
        </mxCell>
        <mxCell id="adKv_Lc8FZIVJhlpuSaN-52" value="참" style="text;html=1;align=center;verticalAlign=middle;resizable=0;points=[];autosize=1;strokeColor=none;fillColor=none;fontSize=18;" vertex="1" parent="1">
          <mxGeometry x="545" y="490" width="40" height="40" as="geometry" />
        </mxCell>
        <mxCell id="adKv_Lc8FZIVJhlpuSaN-53" value="참" style="text;html=1;align=center;verticalAlign=middle;resizable=0;points=[];autosize=1;strokeColor=none;fillColor=none;fontSize=18;" vertex="1" parent="1">
          <mxGeometry x="545" y="610" width="40" height="40" as="geometry" />
        </mxCell>
        <mxCell id="adKv_Lc8FZIVJhlpuSaN-54" value="거짓" style="text;html=1;align=center;verticalAlign=middle;resizable=0;points=[];autosize=1;strokeColor=none;fillColor=none;fontSize=18;" vertex="1" parent="1">
          <mxGeometry x="460" y="440" width="60" height="40" as="geometry" />
        </mxCell>
        <mxCell id="adKv_Lc8FZIVJhlpuSaN-55" value="거짓" style="text;html=1;align=center;verticalAlign=middle;resizable=0;points=[];autosize=1;strokeColor=none;fillColor=none;fontSize=18;" vertex="1" parent="1">
          <mxGeometry x="460" y="565" width="60" height="40" as="geometry" />
        </mxCell>
        <mxCell id="adKv_Lc8FZIVJhlpuSaN-56" value="거짓" style="text;html=1;align=center;verticalAlign=middle;resizable=0;points=[];autosize=1;strokeColor=none;fillColor=none;fontSize=18;" vertex="1" parent="1">
          <mxGeometry x="460" y="690" width="60" height="40" as="geometry" />
        </mxCell>
      </root>
    </mxGraphModel>
  </diagram>
</mxfile>
